<?xml version="1.0" encoding="UTF-8" standalone="no"?>
<svg viewBox="0 0 64 192" width="64" height="192" xmlns="http://www.w3.org/2000/svg" xmlns:svg="http://www.w3.org/2000/svg">
<circle
	cx="32"
	cy="32"
	r="29.897806"
	style="fill: currentColor;fill-opacity:1;stroke:#ffffff;stroke-width:4.20439;stroke-miterlimit:4;stroke-dasharray:none;stroke-opacity:1" />
<path d="m 34.279873,20.262171 6.711442,6.714294 c 0.891465,0.891465 2.339986,0.891465 3.231451,0 0.891466,-0.891465 0.891466,-2.339985 0,-3.23145 -9.662902,-9.665829 -3.794285,-3.794286 -8.180297,-8.180298 -1.071396,-1.074322 -2.525696,-1.677165 -4.039972,-1.677165 -1.517129,0 -2.968576,0.602858 -4.042825,1.677165 l -8.180298,8.180298 c -0.894317,0.891465 -0.894317,2.339986 0,3.23145 0.891466,0.891465 2.339987,0.891465 3.231452,0 l 6.697106,-6.694253 v 27.703943 c 0,0 -0.109706,2.126292 2.285971,2.126292 2.395676,0 2.28597,-2.126292 2.28597,-2.126292 z" style="fill:#ffffff;fill-opacity:1;fill-rule:evenodd;stroke-width:0.731429" />
</svg>
