<?xml version="1.0" encoding="UTF-8" standalone="no"?>
<svg
   width="48"
   height="48"
   viewBox="0 0 48 48"
   xmlns="http://www.w3.org/2000/svg"
   xmlns:svg="http://www.w3.org/2000/svg">
  <path
     style="fill:#ffcc80;fill-opacity:1;stroke:#ffffff;stroke-width:2.63736;stroke-dasharray:none;stroke-opacity:1"
     d="M 24 1.3183594 A 22.68132 22.68132 0 0 0 1.3183594 24 A 22.68132 22.68132 0 0 0 24 46.681641 A 22.68132 22.68132 0 0 0 46.681641 24 A 22.68132 22.68132 0 0 0 24 1.3183594 z M 24 14.021484 A 9.9777565 9.9777565 0 0 1 33.978516 24 A 9.9777565 9.9777565 0 0 1 24 33.978516 A 9.9777565 9.9777565 0 0 1 14.021484 24 A 9.9777565 9.9777565 0 0 1 24 14.021484 z " />
  <path
     style="fill:#bf360c;fill-opacity:1;stroke:#ffffff;stroke-width:2.5;stroke-miterlimit:4;stroke-dasharray:none;stroke-opacity:1"
     d="M 24 1.2421875 A 22.594107 22.594107 0 0 0 8.0214844 7.859375 L 17.042969 16.882812 A 9.9777565 9.9777565 0 0 1 24 14.021484 A 9.9777565 9.9777565 0 0 1 30.974609 16.867188 L 39.978516 7.8632812 A 22.594107 22.594107 0 0 0 24 1.2421875 z " />
</svg>
