<?xml version="1.0" encoding="UTF-8" standalone="no"?>
<!-- Created with Inkscape (http://www.inkscape.org/) -->

<svg
   width="48"
   height="48"
   viewBox="0 0 12.7 12.7"
   version="1.1"
   id="svg5"
   xml:space="preserve"
   xmlns="http://www.w3.org/2000/svg"
   xmlns:svg="http://www.w3.org/2000/svg"><defs
     id="defs2"><filter
       style="color-interpolation-filters:sRGB;"
       id="filter1345"
       x="-0.2314438"
       y="-0.2314438"
       width="1.4628876"
       height="1.4628876"><feFlood
         flood-opacity="0.498039"
         flood-color="rgb(0,0,0)"
         result="flood"
         id="feFlood1335" /><feComposite
         in="flood"
         in2="SourceGraphic"
         operator="in"
         result="composite1"
         id="feComposite1337" /><feGaussianBlur
         in="composite1"
         stdDeviation="0.5"
         result="blur"
         id="feGaussianBlur1339" /><feOffset
         dx="0"
         dy="0"
         result="offset"
         id="feOffset1341" /><feComposite
         in="SourceGraphic"
         in2="offset"
         operator="over"
         result="composite2"
         id="feComposite1343" /></filter><filter
       style="color-interpolation-filters:sRGB;"
       id="filter1389"
       x="-0.19034556"
       y="-0.19034556"
       width="1.3806911"
       height="1.3806911"><feFlood
         flood-opacity="0.498039"
         flood-color="rgb(0,0,0)"
         result="flood"
         id="feFlood1379" /><feComposite
         in="flood"
         in2="SourceGraphic"
         operator="in"
         result="composite1"
         id="feComposite1381" /><feGaussianBlur
         in="composite1"
         stdDeviation="0.5"
         result="blur"
         id="feGaussianBlur1383" /><feOffset
         dx="0"
         dy="0"
         result="offset"
         id="feOffset1385" /><feComposite
         in="SourceGraphic"
         in2="offset"
         operator="over"
         result="composite2"
         id="feComposite1387" /></filter></defs><g
     id="layer1"><path
       style="fill:#bf674c;fill-opacity:1;stroke:#ffffff;stroke-width:0.661458;stroke-miterlimit:4;stroke-dasharray:none;stroke-opacity:1;filter:url(#filter1389)"
       id="path6342"
       transform="matrix(-0.23019089,-0.85909373,0.85909246,-0.23019564,0.96173083,0.76136943)"
       d="M -1.2578926,1.9117668 A 8.0418425,8.0418425 0 0 1 -9.2997351,9.9536092 V 1.9117668 Z" /><circle
       style="fill:#be621c;fill-opacity:1;stroke:#ffffff;stroke-width:0.88787;stroke-miterlimit:4;stroke-dasharray:none;stroke-opacity:1;filter:url(#filter1345)"
       id="path846"
       cx="7.9277072"
       cy="5.4758525"
       r="3.5514777"
       transform="matrix(0.77024177,0.44469933,-0.44469933,0.77024177,0.96173083,0.76136943)" /><g
       id="g892"
       transform="matrix(1.1784639,0,0,1.1784639,-0.83676862,-1.6599522)"><path
         d="M 3.5996678,9.4106252 H 5.7824803 V 9.8075001 H 3.5996678 Z"
         id="path254"
         style="fill:#ffffff;fill-opacity:1;stroke-width:0.264583" /><path
         d="M 4.1283053,8.2700064 3.8301199,8.0048939 4.0952324,7.7067085 3.7986345,7.4429189 3.533522,7.7411043 3.2353366,7.4759918 2.971547,7.7725898 3.2697324,8.0377023 3.0046199,8.3358877 3.3012178,8.5996772 3.5663303,8.3014918 3.8645157,8.5666043 Z"
         id="path256"
         style="fill:#ffffff;fill-opacity:1;stroke-width:0.264583" /><path
         d="M 6.2780449,7.7069731 5.981447,7.4431835 5.7163345,7.7413689 5.4181491,7.4762564 5.1543595,7.7728543 5.4525449,8.0379668 5.1874324,8.3361522 5.4840303,8.5999418 5.7491428,8.3017564 6.0473282,8.5668689 6.3111178,8.270271 6.0129324,8.0051585 Z"
         id="path258"
         style="fill:#ffffff;fill-opacity:1;stroke-width:0.264583" /></g></g></svg>
