<?xml version="1.0" encoding="UTF-8" standalone="no"?>
<svg
   version="1.1"
   x="0px"
   y="0px"
   viewBox="0 0 90.455002 90.452003"
   id="svg10"
   width="90.455002"
   height="90.452003"
   xmlns="http://www.w3.org/2000/svg"
   xmlns:svg="http://www.w3.org/2000/svg">
  <defs
     id="defs1" />
  <path
     d="m 2.512,90.45 h 8.012 12.834 c 0.008,0 0.014,0.002 0.02,0.002 h 15.423 c 0.008,0 0.014,-0.002 0.02,-0.002 h 1.164 c 1.387,0 2.512,-1.125 2.512,-2.512 V 52.813 l 27.52,-27.516 v 19.109 c 0,1.386 1.125,2.512 2.514,2.512 1.387,0 2.512,-1.126 2.512,-2.512 V 19.233 c 0,-1.387 -1.125,-2.514 -2.512,-2.514 H 47.356 c -1.389,0 -2.514,1.127 -2.514,2.514 0,1.387 1.125,2.512 2.514,2.512 H 66.463 L 40.226,47.977 c -0.08,-0.008 -0.16,-0.023 -0.242,-0.023 H 2.512 C 1.125,47.954 0,49.079 0,50.466 v 1.188 15.424 12.854 8.008 c 0,1.385 1.125,2.51 2.512,2.51 z M 5.025,79.93 V 67.077 52.977 H 37.471 V 85.424 H 10.523 5.025 Z"
     id="path1" />
  <path
     d="m 67.078,90.452 c 1.389,0 2.514,-1.125 2.514,-2.514 0,-1.387 -1.125,-2.512 -2.514,-2.512 H 51.655 c -1.387,0 -2.512,1.125 -2.512,2.512 0,1.389 1.125,2.514 2.512,2.514 z"
     id="path2" />
  <path
     d="m 90.455,79.93 c 0,-1.387 -1.125,-2.512 -2.514,-2.512 -1.387,0 -2.512,1.125 -2.512,2.512 v 5.496 h -5.496 c -1.389,0 -2.512,1.125 -2.512,2.512 0,1.389 1.123,2.514 2.512,2.514 h 8.008 c 1.389,0 2.514,-1.125 2.514,-2.514 z"
     id="path3" />
  <path
     d="m 87.942,41.311 c 1.387,0 2.512,-1.127 2.512,-2.514 V 23.373 c 0,-1.387 -1.125,-2.512 -2.512,-2.512 -1.389,0 -2.514,1.125 -2.514,2.512 v 15.424 c 0,1.387 1.125,2.514 2.514,2.514 z"
     id="path4" />
  <path
     d="m 85.428,67.075 c 0,1.387 1.125,2.512 2.514,2.512 1.387,0 2.512,-1.125 2.512,-2.512 V 51.651 c 0,-1.387 -1.125,-2.512 -2.512,-2.512 -1.389,0 -2.514,1.125 -2.514,2.512 z"
     id="path5" />
  <path
     d="m 87.942,0 h -8.008 c -1.389,0 -2.512,1.127 -2.512,2.514 0,1.387 1.123,2.512 2.512,2.512 h 5.494 v 5.496 c 0,1.387 1.125,2.514 2.514,2.514 1.387,0 2.512,-1.127 2.512,-2.514 V 2.514 C 90.453,1.127 89.328,0 87.942,0 Z"
     id="path6" />
  <path
     d="m 23.377,5.024 h 15.422 c 1.389,0 2.514,-1.125 2.514,-2.512 C 41.313,1.125 40.188,0 38.799,0 H 23.377 c -1.389,0 -2.514,1.125 -2.514,2.512 0,1.387 1.125,2.512 2.514,2.512 z"
     id="path7" />
  <path
     d="m 51.653,5.024 h 15.424 c 1.389,0 2.514,-1.125 2.514,-2.512 C 69.591,1.125 68.466,0 67.077,0 H 51.653 c -1.387,0 -2.512,1.125 -2.512,2.512 0,1.387 1.125,2.512 2.512,2.512 z"
     id="path8" />
  <path
     d="m 2.512,13.033 c 1.389,0 2.514,-1.125 2.514,-2.514 V 5.024 h 5.498 c 1.387,0 2.512,-1.125 2.512,-2.512 C 13.036,1.125 11.911,0 10.524,0 H 2.512 C 1.125,0 0,1.125 0,2.512 v 8.008 c 0,1.388 1.125,2.513 2.512,2.513 z"
     id="path9" />
  <path
     d="m 2.512,41.311 c 1.389,0 2.514,-1.125 2.514,-2.512 V 23.375 C 5.026,21.988 3.901,20.863 2.512,20.863 1.125,20.863 0,21.988 0,23.375 v 15.424 c 0,1.387 1.125,2.512 2.512,2.512 z"
     id="path10" />
</svg>
