<?xml version="1.0" encoding="UTF-8" standalone="no"?>
<svg
   version="1.1"
   x="0px"
   y="0px"
   viewBox="0 0 90.169998 90.171997"
   enable-background="new 0 0 91 91"
   id="svg12"
   width="90.169998"
   height="90.171997"
   xmlns="http://www.w3.org/2000/svg"
   xmlns:svg="http://www.w3.org/2000/svg">
  <defs
     id="defs1" />
  <path
     d="m 45.832,18.039 c -1.388,0 -2.513,1.125 -2.513,2.512 V 45.64 c 0,1.39 1.125,2.515 2.513,2.515 h 25.089 c 1.389,0 2.512,-1.125 2.512,-2.515 0,-1.386 -1.123,-2.511 -2.512,-2.511 H 51.894 L 79.386,15.635 c 0.982,-0.98 0.982,-2.57 0,-3.553 -0.98,-0.98 -2.572,-0.98 -3.553,0 L 48.343,39.576 V 20.551 c 0,-1.387 -1.125,-2.512 -2.511,-2.512 z"
     id="path1" />
  <path
     d="m 2.512,90.171 h 0.002 7.982 12.808 15.372 1.182 c 1.388,0 2.514,-1.125 2.514,-2.514 v -37.35 c 0,-1.387 -1.126,-2.512 -2.514,-2.512 H 2.514 c -1.389,0 -2.513,1.125 -2.513,2.512 v 1.17 C 0.001,51.481 0,51.487 0,51.491 v 15.373 c 0,0.006 0.001,0.01 0.001,0.016 V 79.661 C 0.001,79.665 0,79.671 0,79.675 v 7.982 c 0,1.389 1.124,2.514 2.512,2.514 z M 5.026,52.819 H 37.345 V 85.145 H 23.304 10.497 5.026 Z"
     id="path2" />
  <path
     d="m 51.487,85.145 c -1.389,0 -2.514,1.125 -2.514,2.512 0,1.389 1.125,2.514 2.514,2.514 H 66.86 c 1.387,0 2.512,-1.125 2.512,-2.514 0,-1.387 -1.125,-2.512 -2.512,-2.512 z"
     id="path3" />
  <path
     d="m 87.657,77.163 c -1.389,0 -2.514,1.125 -2.514,2.512 v 5.471 h -5.469 c -1.389,0 -2.514,1.125 -2.514,2.512 0,1.389 1.125,2.514 2.514,2.514 h 7.983 c 1.387,0 2.512,-1.125 2.512,-2.514 v -7.982 c 0,-1.388 -1.125,-2.513 -2.512,-2.513 z"
     id="path4" />
  <path
     d="m 87.657,48.979 c -1.389,0 -2.514,1.125 -2.514,2.512 v 15.373 c 0,1.387 1.125,2.514 2.514,2.514 1.387,0 2.512,-1.127 2.512,-2.514 V 51.491 c 0,-1.387 -1.125,-2.512 -2.512,-2.512 z"
     id="path5" />
  <path
     d="m 87.657,20.795 c -1.389,0 -2.514,1.125 -2.514,2.512 V 38.68 c 0,1.387 1.125,2.512 2.514,2.512 1.387,0 2.512,-1.125 2.512,-2.512 V 23.307 c 0,-1.387 -1.125,-2.512 -2.512,-2.512 z"
     id="path6" />
  <path
     d="m 87.657,0.002 h -7.982 c -1.389,0 -2.514,1.125 -2.514,2.512 0,1.387 1.125,2.512 2.514,2.512 h 5.469 v 5.471 c 0,1.387 1.125,2.512 2.514,2.512 1.387,0 2.512,-1.125 2.512,-2.512 V 2.514 C 90.169,1.127 89.044,0.002 87.657,0.002 Z"
     id="path7" />
  <path
     d="m 38.678,5.024 c 1.389,0 2.513,-1.125 2.513,-2.512 C 41.191,1.125 40.067,0 38.678,0 H 23.305 c -1.387,0 -2.512,1.125 -2.512,2.512 0,1.387 1.125,2.512 2.512,2.512 z"
     id="path8" />
  <path
     d="m 66.86,5.024 c 1.389,0 2.514,-1.125 2.514,-2.512 C 69.374,1.125 68.249,0 66.86,0 H 51.489 c -1.389,0 -2.514,1.125 -2.514,2.512 0,1.387 1.125,2.512 2.514,2.512 z"
     id="path9" />
  <path
     d="m 2.512,13.006 c 1.389,0 2.513,-1.125 2.513,-2.512 v -5.47 h 5.468 c 1.389,0 2.513,-1.125 2.513,-2.512 C 13.006,1.125 11.882,0 10.493,0 H 2.513 C 1.125,0 10e-4,1.125 10e-4,2.512 v 7.982 C 0,11.881 1.124,13.006 2.512,13.006 Z"
     id="path10" />
  <path
     d="m 2.512,41.192 c 1.389,0 2.513,-1.125 2.513,-2.512 V 23.307 C 5.025,21.92 3.901,20.795 2.512,20.795 1.124,20.795 0,21.92 0,23.307 V 38.68 c 0,1.387 1.124,2.512 2.512,2.512 z"
     id="path11" />
</svg>
